<svg width="108" height="19" viewBox="0 0 108 19" fill="none" xmlns="http://www.w3.org/2000/svg">
<path d="M13.8283 0C14.2851 6.62407 12.2294 13.4765 10.8589 18.7301C23.7263 18.5778 49.9637 18.3646 51.9738 18.7301C51.6083 16.1719 51.9738 5.25357 52.8874 0C37.5836 2.51258 14.2851 0 13.8283 0Z" fill="#9F1729"/>
<path d="M23.0318 6.81227C21.9793 6.23118 21.0638 5.94064 20.2854 5.94064C19.7591 5.94064 19.3479 6.04479 19.0519 6.25311C18.7668 6.46143 18.6243 6.7739 18.6243 7.19053C18.6243 7.57427 18.8326 7.91415 19.2493 8.21018C19.6769 8.49524 20.2415 8.76934 20.9432 9.03248C21.5133 9.24079 22.0012 9.482 22.4069 9.7561C22.8125 10.0192 23.1469 10.3865 23.4101 10.858C23.6842 11.3294 23.8212 11.927 23.8212 12.6506C23.8212 13.2755 23.6568 13.8566 23.3279 14.3939C23.0099 14.9201 22.5384 15.3422 21.9135 15.6602C21.2886 15.9672 20.543 16.1207 19.6769 16.1207C18.9532 16.1207 18.2351 16.0165 17.5224 15.8082C16.8098 15.5889 16.1465 15.26 15.5325 14.8215L16.585 12.9631C17.0016 13.2701 17.4786 13.5222 18.0158 13.7196C18.553 13.9169 19.0355 14.0156 19.4631 14.0156C19.9674 14.0156 20.406 13.9114 20.7787 13.7031C21.1515 13.4838 21.3379 13.133 21.3379 12.6506C21.3379 12.0256 20.7513 11.4829 19.5782 11.0224C18.8874 10.7483 18.3118 10.4852 17.8514 10.233C17.3909 9.98086 16.9907 9.61905 16.6508 9.1476C16.3219 8.67615 16.1574 8.08409 16.1574 7.37143C16.1574 6.32986 16.4973 5.49111 17.1771 4.8552C17.8678 4.21929 18.7833 3.87393 19.9235 3.81911C20.8226 3.81911 21.5736 3.92327 22.1766 4.13158C22.7797 4.32893 23.3662 4.614 23.9364 4.98677L23.0318 6.81227Z" fill="white"/>
<path d="M31.5838 3.88489V15.9891H29.1992V3.88489H31.5838Z" fill="white"/>
<path d="M48.6541 3.88489V16.4825H48.5883L40.1187 8.83512L40.168 15.9891H37.7504V3.40796H37.8491L46.3023 11.1704L46.253 3.88489H48.6541Z" fill="white"/>
<path d="M54.0737 9.95345C54.0737 8.85705 54.3478 7.83192 54.896 6.87806C55.4552 5.92419 56.2062 5.16768 57.1491 4.60851C58.1029 4.03839 59.1336 3.75332 60.2409 3.75332C61.3483 3.75332 62.3734 4.03839 63.3163 4.60851C64.2702 5.16768 65.0267 5.92419 65.5859 6.87806C66.156 7.83192 66.441 8.85705 66.441 9.95345C66.441 11.0718 66.156 12.1024 65.5859 13.0453C65.0267 13.9882 64.2702 14.7392 63.3163 15.2984C62.3734 15.8466 61.3483 16.1207 60.2409 16.1207C59.1226 16.1207 58.092 15.8466 57.1491 15.2984C56.2062 14.7392 55.4552 13.9882 54.896 13.0453C54.3478 12.1024 54.0737 11.0718 54.0737 9.95345ZM56.5406 9.95345C56.5406 10.6551 56.705 11.302 57.034 11.8941C57.3738 12.4861 57.8288 12.9576 58.399 13.3084C58.9801 13.6483 59.6215 13.8182 60.3232 13.8182C61.0029 13.8182 61.6224 13.6483 62.1815 13.3084C62.7407 12.9576 63.1793 12.4916 63.4972 11.9105C63.8152 11.3185 63.9742 10.6661 63.9742 9.95345C63.9742 9.22983 63.8097 8.57199 63.4808 7.97994C63.1519 7.38788 62.7023 6.92191 62.1322 6.58203C61.573 6.23118 60.9481 6.05576 60.2574 6.05576C59.5666 6.05576 58.9362 6.23118 58.3661 6.58203C57.8069 6.92191 57.3629 7.38788 57.034 7.97994C56.705 8.57199 56.5406 9.22983 56.5406 9.95345Z" fill="white"/>
<path d="M71.861 3.88489H75.4791C77.0251 3.88489 78.2969 4.1864 79.2946 4.78942C80.2923 5.38147 81.0159 6.15443 81.4655 7.1083C81.9259 8.0512 82.1562 9.06537 82.1562 10.1508C82.1562 11.313 81.8821 12.3381 81.3339 13.2262C80.7857 14.1143 80.0456 14.7995 79.1137 15.2819C78.1927 15.7534 77.1785 15.9891 76.0712 15.9891H71.861V3.88489ZM75.66 13.6867C76.899 13.6867 77.8802 13.3687 78.6039 12.7328C79.3275 12.0969 79.6893 11.1814 79.6893 9.98634C79.6893 9.02151 79.4865 8.25403 79.0808 7.68391C78.6861 7.11378 78.2201 6.71908 77.6829 6.4998C77.1566 6.28052 76.6578 6.17088 76.1863 6.17088H74.2457V13.6867H75.66Z" fill="white"/>
<path d="M89.976 3.88489V15.9891H87.5913V3.88489H89.976Z" fill="white"/>
<path d="M95.4025 9.95345C95.4025 8.85705 95.6766 7.83192 96.2248 6.87806C96.784 5.92419 97.535 5.16768 98.4779 4.60851C99.4318 4.03839 100.462 3.75332 101.57 3.75332C102.677 3.75332 103.702 4.03839 104.645 4.60851C105.599 5.16768 106.356 5.92419 106.915 6.87806C107.485 7.83192 107.77 8.85705 107.77 9.95345C107.77 11.0718 107.485 12.1024 106.915 13.0453C106.356 13.9882 105.599 14.7392 104.645 15.2984C103.702 15.8466 102.677 16.1207 101.57 16.1207C100.451 16.1207 99.4208 15.8466 98.4779 15.2984C97.535 14.7392 96.784 13.9882 96.2248 13.0453C95.6766 12.1024 95.4025 11.0718 95.4025 9.95345ZM97.8694 9.95345C97.8694 10.6551 98.0339 11.302 98.3628 11.8941C98.7027 12.4861 99.1577 12.9576 99.7278 13.3084C100.309 13.6483 100.95 13.8182 101.652 13.8182C102.332 13.8182 102.951 13.6483 103.51 13.3084C104.07 12.9576 104.508 12.4916 104.826 11.9105C105.144 11.3185 105.303 10.6661 105.303 9.95345C105.303 9.22983 105.139 8.57199 104.81 7.97994C104.481 7.38788 104.031 6.92191 103.461 6.58203C102.902 6.23118 102.277 6.05576 101.586 6.05576C100.895 6.05576 100.265 6.23118 99.6949 6.58203C99.1357 6.92191 98.6917 7.38788 98.3628 7.97994C98.0339 8.57199 97.8694 9.22983 97.8694 9.95345Z" fill="white"/>
<path d="M5.24078 3.81183C5.1823 4.36734 5.05804 5.32486 4.868 6.68439H6.75381L6.84152 5.98269C6.95847 5.13481 7.09734 4.00187 7.25815 2.58386H9.4948L9.3413 3.81183C9.28283 4.36734 9.15857 5.32486 8.96853 6.68439H11.0736L10.8763 8.8114H8.74925C8.6323 9.73237 8.5519 10.3829 8.50804 10.763H10.6131C10.4962 11.7717 10.4158 12.488 10.3719 12.9119H8.24491C8.20105 13.4236 8.09872 14.2934 7.93791 15.5213L7.78442 16.9028H5.5697C5.62817 16.3912 5.7305 15.5213 5.87669 14.2934L6.03018 12.9119H4.16631C4.13707 13.1751 4.0786 13.6282 3.99089 14.2715C3.8447 15.4409 3.74968 16.3181 3.70582 16.9028H1.44724L1.92966 12.9119H0L0.0877118 12.1664C0.175424 11.5524 0.233898 11.0846 0.263135 10.763H2.19279L2.434 8.8114H0.504343L0.74555 6.68439H2.65328L3.17955 2.58386H5.39427L5.24078 3.81183ZM4.64872 8.8114C4.60487 9.19148 4.52447 9.84201 4.40752 10.763H6.29332L6.5126 8.8114H4.64872Z" fill="white"/>
</svg>
