<svg width="175" height="31" viewBox="0 0 175 31" fill="none" xmlns="http://www.w3.org/2000/svg">
<path d="M22.4595 0C23.2015 10.7586 19.8626 21.8882 17.6367 30.4209C38.5356 30.1735 81.1495 29.8273 84.4142 30.4209C83.8206 26.2658 84.4142 8.53268 85.8982 0C61.0421 4.08085 23.2015 0 22.4595 0Z" fill="#9F1729"/>
<path d="M37.6988 11.0643C35.9893 10.1205 34.5024 9.64865 33.238 9.64865C32.3833 9.64865 31.7155 9.81782 31.2347 10.1562C30.7717 10.4945 30.5402 11.002 30.5402 11.6787C30.5402 12.3019 30.8786 12.854 31.5552 13.3348C32.2497 13.7978 33.1668 14.2429 34.3065 14.6703C35.2325 15.0087 36.0249 15.4004 36.6838 15.8456C37.3426 16.273 37.8857 16.8695 38.3131 17.6352C38.7583 18.401 38.9809 19.3715 38.9809 20.5467C38.9809 21.5618 38.7138 22.5055 38.1796 23.3781C37.6632 24.2329 36.8974 24.9184 35.8824 25.4349C34.8674 25.9335 33.6565 26.1828 32.2497 26.1828C31.0744 26.1828 29.9081 26.0136 28.7506 25.6753C27.5931 25.3191 26.5158 24.7849 25.5186 24.0726L27.2281 21.0542C27.9047 21.5529 28.6794 21.9624 29.5519 22.283C30.4245 22.6035 31.208 22.7638 31.9025 22.7638C32.7216 22.7638 33.4339 22.5946 34.0394 22.2562C34.6448 21.9001 34.9475 21.3303 34.9475 20.5467C34.9475 19.5317 33.9948 18.6503 32.0895 17.9024C30.9676 17.4572 30.0327 17.0298 29.2848 16.6202C28.5369 16.2107 27.8869 15.623 27.3349 14.8573C26.8007 14.0916 26.5336 13.13 26.5336 11.9725C26.5336 10.2808 27.0856 8.91855 28.1897 7.88572C29.3115 6.8529 30.7984 6.29197 32.6504 6.20293C34.1106 6.20293 35.3304 6.3721 36.3098 6.71044C37.2892 7.03097 38.2419 7.49396 39.1679 8.09941L37.6988 11.0643Z" fill="white"/>
<path d="M51.5887 6.30977V25.9691H47.7156V6.30977H51.5887Z" fill="white"/>
<path d="M79.3137 6.30977V26.7704H79.2068L65.4507 14.3498L65.5308 25.9691H61.6043V5.53516H61.7645L75.494 18.1427L75.4139 6.30977H79.3137Z" fill="white"/>
<path d="M87.5581 16.1661C87.5581 14.3854 88.0033 12.7204 88.8937 11.1712C89.8018 9.62192 91.0216 8.39321 92.5531 7.48504C94.1023 6.55906 95.7762 6.09607 97.5747 6.09607C99.3733 6.09607 101.038 6.55906 102.57 7.48504C104.119 8.39321 105.348 9.62192 106.256 11.1712C107.182 12.7204 107.645 14.3854 107.645 16.1661C107.645 17.9825 107.182 19.6564 106.256 21.1878C105.348 22.7192 104.119 23.939 102.57 24.8472C101.038 25.7376 99.3733 26.1827 97.5747 26.1827C95.7584 26.1827 94.0845 25.7376 92.5531 24.8472C91.0216 23.939 89.8018 22.7192 88.8937 21.1878C88.0033 19.6564 87.5581 17.9825 87.5581 16.1661ZM91.5648 16.1661C91.5648 17.3058 91.8319 18.3564 92.3661 19.318C92.9181 20.2796 93.6571 21.0453 94.5831 21.6152C95.5269 22.1672 96.5686 22.4432 97.7083 22.4432C98.8123 22.4432 99.8185 22.1672 100.727 21.6152C101.635 21.0453 102.347 20.2885 102.864 19.3447C103.38 18.3831 103.638 17.3236 103.638 16.1661C103.638 14.9908 103.371 13.9224 102.837 12.9608C102.303 11.9992 101.572 11.2424 100.646 10.6904C99.7383 10.1205 98.7233 9.83561 97.6014 9.83561C96.4796 9.83561 95.4557 10.1205 94.5297 10.6904C93.6215 11.2424 92.9003 11.9992 92.3661 12.9608C91.8319 13.9224 91.5648 14.9908 91.5648 16.1661Z" fill="#323435"/>
<path d="M116.448 6.30976H122.324C124.835 6.30976 126.901 6.79946 128.521 7.77886C130.142 8.74046 131.317 9.99587 132.047 11.5451C132.795 13.0765 133.169 14.7237 133.169 16.4866C133.169 18.3742 132.724 20.0392 131.833 21.4816C130.943 22.924 129.741 24.037 128.227 24.8205C126.731 25.5862 125.084 25.9691 123.286 25.9691H116.448V6.30976ZM122.618 22.2295C124.63 22.2295 126.224 21.7131 127.399 20.6803C128.575 19.6474 129.162 18.1605 129.162 16.2195C129.162 14.6525 128.833 13.406 128.174 12.48C127.533 11.554 126.776 10.913 125.903 10.5568C125.049 10.2007 124.238 10.0226 123.473 10.0226H120.321V22.2295H122.618Z" fill="#323435"/>
<path d="M145.869 6.30976V25.9691H141.996V6.30976H145.869Z" fill="#323435"/>
<path d="M154.683 16.1661C154.683 14.3854 155.128 12.7204 156.019 11.1712C156.927 9.62192 158.147 8.39321 159.678 7.48504C161.227 6.55906 162.901 6.09607 164.7 6.09607C166.498 6.09607 168.163 6.55906 169.695 7.48504C171.244 8.39321 172.473 9.62192 173.381 11.1712C174.307 12.7204 174.77 14.3854 174.77 16.1661C174.77 17.9825 174.307 19.6564 173.381 21.1878C172.473 22.7192 171.244 23.939 169.695 24.8472C168.163 25.7376 166.498 26.1827 164.7 26.1827C162.883 26.1827 161.209 25.7376 159.678 24.8472C158.147 23.939 156.927 22.7192 156.019 21.1878C155.128 19.6564 154.683 17.9825 154.683 16.1661ZM158.69 16.1661C158.69 17.3058 158.957 18.3564 159.491 19.318C160.043 20.2796 160.782 21.0453 161.708 21.6152C162.652 22.1672 163.694 22.4432 164.833 22.4432C165.937 22.4432 166.943 22.1672 167.852 21.6152C168.76 21.0453 169.472 20.2885 169.988 19.3447C170.505 18.3831 170.763 17.3236 170.763 16.1661C170.763 14.9908 170.496 13.9224 169.962 12.9608C169.428 11.9992 168.697 11.2424 167.771 10.6904C166.863 10.1205 165.848 9.83561 164.726 9.83561C163.605 9.83561 162.581 10.1205 161.655 10.6904C160.746 11.2424 160.025 11.9992 159.491 12.9608C158.957 13.9224 158.69 14.9908 158.69 16.1661Z" fill="#323435"/>
<path d="M8.51191 6.19102C8.41693 7.09326 8.21512 8.64843 7.90646 10.8565H10.9693L11.1118 9.71687C11.3017 8.33977 11.5273 6.49968 11.7885 4.19659H15.4212L15.1718 6.19102C15.0769 7.09326 14.8751 8.64843 14.5664 10.8565H17.9854L17.6649 14.3112H14.2103C14.0203 15.807 13.8897 16.8635 13.8185 17.4809H17.2375C17.0476 19.1191 16.917 20.2826 16.8457 20.9711H13.3911C13.3199 21.8021 13.1537 23.2148 12.8925 25.2092L12.6432 27.453H9.04613C9.1411 26.622 9.3073 25.2092 9.54473 23.2148L9.79403 20.9711H6.76679C6.7193 21.3985 6.62433 22.1345 6.48187 23.1792C6.24444 25.0787 6.09011 26.5032 6.01888 27.453H2.35057L3.13409 20.9711H0L0.142459 19.7602C0.284917 18.763 0.37989 18.0032 0.427376 17.4809H3.56147L3.95323 14.3112H0.819137L1.2109 10.8565H4.30938L5.16413 4.19659H8.76121L8.51191 6.19102ZM7.55031 14.3112C7.47908 14.9285 7.34849 15.9851 7.15855 17.4809H10.2214L10.5776 14.3112H7.55031Z" fill="#323435"/>
</svg>
