<svg width="175" height="31" viewBox="0 0 175 31" fill="none" xmlns="http://www.w3.org/2000/svg">
<path d="M22.4252 0C23.1661 10.7422 19.8323 21.8548 17.6097 30.3745C38.4768 30.1276 81.0258 29.7819 84.2855 30.3745C83.6929 26.2258 84.2855 8.51969 85.7672 0C60.949 4.07463 23.1661 0 22.4252 0Z" fill="#9F1729"/>
<path d="M37.3507 11.0474C35.6438 10.1051 34.1591 9.6339 32.8967 9.6339C32.0433 9.6339 31.3765 9.80281 30.8965 10.1406C30.4342 10.4785 30.203 10.9852 30.203 11.6608C30.203 12.2832 30.5409 12.8343 31.2165 13.3144C31.9099 13.7767 32.8256 14.2212 33.9636 14.6479C34.8881 14.9857 35.6794 15.3769 36.3372 15.8214C36.9951 16.2481 37.5374 16.8438 37.9641 17.6083C38.4086 18.3729 38.6309 19.3419 38.6309 20.5154C38.6309 21.5289 38.3642 22.4712 37.8308 23.3424C37.3151 24.1959 36.5506 24.8804 35.5371 25.3961C34.5236 25.8939 33.3146 26.1428 31.9099 26.1428C30.7365 26.1428 29.5718 25.9739 28.4161 25.6361C27.2604 25.2805 26.1847 24.7471 25.189 24.0359L26.8959 21.0221C27.5716 21.52 28.345 21.9289 29.2162 22.249C30.0875 22.569 30.8698 22.729 31.5632 22.729C32.3811 22.729 33.0923 22.5601 33.6969 22.2223C34.3014 21.8667 34.6037 21.2977 34.6037 20.5154C34.6037 19.5019 33.6524 18.6218 31.7499 17.875C30.6298 17.4305 29.6963 17.0038 28.9495 16.5949C28.2028 16.1859 27.5538 15.5992 27.0026 14.8346C26.4692 14.0701 26.2025 13.1099 26.2025 11.9542C26.2025 10.2651 26.7537 8.90491 27.8561 7.87366C28.9762 6.84241 30.4609 6.28233 32.31 6.19343C33.768 6.19343 34.9859 6.36234 35.9638 6.70017C36.9417 7.02021 37.893 7.4825 38.8176 8.08702L37.3507 11.0474Z" fill="white"/>
<path d="M51.2195 6.30011V25.9295H47.3523V6.30011H51.2195Z" fill="white"/>
<path d="M78.9022 6.30011V26.7296H78.7955L65.0603 14.3279L65.1403 25.9295H61.2198V5.52667H61.3798L75.0884 18.1151L75.0084 6.30011H78.9022Z" fill="white"/>
<path d="M87.6911 16.1415C87.6911 14.3634 88.1356 12.701 89.0246 11.1541C89.9314 9.60723 91.1494 8.3804 92.6785 7.47361C94.2254 6.54904 95.8967 6.08675 97.6925 6.08675C99.4883 6.08675 101.151 6.54904 102.68 7.47361C104.227 8.3804 105.454 9.60723 106.36 11.1541C107.285 12.701 107.747 14.3634 107.747 16.1415C107.747 17.955 107.285 19.6264 106.36 21.1555C105.454 22.6846 104.227 23.9025 102.68 24.8093C101.151 25.6983 99.4883 26.1428 97.6925 26.1428C95.8789 26.1428 94.2076 25.6983 92.6785 24.8093C91.1494 23.9025 89.9314 22.6846 89.0246 21.1555C88.1356 19.6264 87.6911 17.955 87.6911 16.1415ZM91.6917 16.1415C91.6917 17.2794 91.9584 18.3284 92.4918 19.2886C93.043 20.2487 93.7809 21.0132 94.7054 21.5822C95.6478 22.1334 96.6879 22.409 97.8259 22.409C98.9282 22.409 99.9328 22.1334 100.84 21.5822C101.746 21.0132 102.458 20.2576 102.973 19.3152C103.489 18.3551 103.747 17.2972 103.747 16.1415C103.747 14.968 103.48 13.9012 102.947 12.941C102.413 11.9809 101.684 11.2252 100.76 10.674C99.8528 10.1051 98.8393 9.82059 97.7192 9.82059C96.599 9.82059 95.5767 10.1051 94.6521 10.674C93.7453 11.2252 93.0252 11.9809 92.4918 12.941C91.9584 13.9012 91.6917 14.968 91.6917 16.1415Z" fill="white"/>
<path d="M116.537 6.30011H122.404C124.911 6.30011 126.974 6.78907 128.592 7.76698C130.21 8.72711 131.383 9.98062 132.112 11.5275C132.859 13.0566 133.232 14.7013 133.232 16.4615C133.232 18.3462 132.788 20.0087 131.899 21.4489C131.01 22.8891 129.81 24.0003 128.298 24.7826C126.805 25.5472 125.16 25.9295 123.364 25.9295H116.537V6.30011ZM122.698 22.1956C124.707 22.1956 126.298 21.68 127.472 20.6487C128.645 19.6175 129.232 18.1328 129.232 16.1948C129.232 14.6301 128.903 13.3855 128.245 12.461C127.605 11.5364 126.849 10.8963 125.978 10.5407C125.125 10.1851 124.316 10.0073 123.551 10.0073H120.404V22.1956H122.698Z" fill="white"/>
<path d="M145.914 6.30011V25.9295H142.047V6.30011H145.914Z" fill="white"/>
<path d="M154.714 16.1415C154.714 14.3634 155.158 12.701 156.047 11.1541C156.954 9.60723 158.172 8.3804 159.701 7.47361C161.248 6.54904 162.919 6.08675 164.715 6.08675C166.511 6.08675 168.173 6.54904 169.703 7.47361C171.249 8.3804 172.476 9.60723 173.383 11.1541C174.308 12.701 174.77 14.3634 174.77 16.1415C174.77 17.955 174.308 19.6264 173.383 21.1555C172.476 22.6846 171.249 23.9025 169.703 24.8093C168.173 25.6983 166.511 26.1428 164.715 26.1428C162.902 26.1428 161.23 25.6983 159.701 24.8093C158.172 23.9025 156.954 22.6846 156.047 21.1555C155.158 19.6264 154.714 17.955 154.714 16.1415ZM158.714 16.1415C158.714 17.2794 158.981 18.3284 159.515 19.2886C160.066 20.2487 160.804 21.0132 161.728 21.5822C162.671 22.1334 163.711 22.409 164.849 22.409C165.951 22.409 166.956 22.1334 167.862 21.5822C168.769 21.0132 169.48 20.2576 169.996 19.3152C170.512 18.3551 170.769 17.2972 170.769 16.1415C170.769 14.968 170.503 13.9012 169.969 12.941C169.436 11.9809 168.707 11.2252 167.782 10.674C166.876 10.1051 165.862 9.82059 164.742 9.82059C163.622 9.82059 162.599 10.1051 161.675 10.674C160.768 11.2252 160.048 11.9809 159.515 12.941C158.981 13.9012 158.714 14.968 158.714 16.1415Z" fill="white"/>
<path d="M8.49894 6.18157C8.40411 7.08244 8.20261 8.63524 7.89441 10.84H10.9526L11.0949 9.70205C11.2845 8.32705 11.5097 6.48976 11.7705 4.19019H15.3977L15.1487 6.18157C15.0539 7.08244 14.8524 8.63524 14.5442 10.84H17.958L17.638 14.2893H14.1886C13.999 15.7829 13.8686 16.8378 13.7974 17.4542H17.2112C17.0216 19.09 16.8912 20.2516 16.8201 20.9391H13.3707C13.2996 21.7689 13.1337 23.1795 12.8729 25.1708L12.624 27.4111H9.03235C9.12718 26.5814 9.29312 25.1708 9.53019 23.1795L9.77912 20.9391H6.75648C6.70907 21.3659 6.61424 22.1008 6.472 23.1439C6.23493 25.0405 6.08083 26.4629 6.00971 27.4111H2.34699L3.12932 20.9391H0L0.142242 19.7301C0.284484 18.7344 0.379311 17.9758 0.426725 17.4542H3.55604L3.94721 14.2893H0.81789L1.20905 10.84H4.30281L5.15626 4.19019H8.74787L8.49894 6.18157ZM7.53881 14.2893C7.46769 14.9057 7.3373 15.9607 7.14765 17.4542H10.2058L10.5614 14.2893H7.53881Z" fill="white"/>
</svg>
