<svg width="87" height="104" viewBox="0 0 87 104" fill="none" xmlns="http://www.w3.org/2000/svg">
<path d="M62.0414 40.088C69.8174 42.008 75.7694 45.512 79.8974 50.6C84.1214 55.592 86.2334 61.64 86.2334 68.744C86.2334 74.792 84.5534 80.456 81.1934 85.736C77.9294 90.92 72.8414 95.144 65.9294 98.408C59.0174 101.672 50.4254 103.304 40.1534 103.304C33.0494 103.304 25.9454 102.536 18.8414 101C11.8334 99.464 5.68944 97.208 0.409437 94.232L11.9294 69.176C16.0574 71.576 20.4734 73.4 25.1774 74.648C29.9774 75.896 34.5854 76.52 39.0014 76.52C42.9374 76.52 46.1054 75.848 48.5054 74.504C50.9054 73.16 52.1054 71.24 52.1054 68.744C52.1054 64.136 48.1214 61.832 40.1534 61.832H26.7614V40.952L41.5934 25.832H5.59344V0.199993H80.7614V21.08L62.0414 40.088Z" fill="#CDCDCD"/>
</svg>
