<svg width="88" height="104" viewBox="0 0 88 104" fill="none" xmlns="http://www.w3.org/2000/svg">
<path d="M87.0113 77.648V104H6.22731V83.12L42.6593 49.424C45.8273 46.448 47.9393 43.904 48.9953 41.792C50.0513 39.68 50.5793 37.616 50.5793 35.6C50.5793 33.104 49.7153 31.184 47.9873 29.84C46.3553 28.4 43.9553 27.68 40.7873 27.68C37.7153 27.68 34.8353 28.496 32.1473 30.128C29.4593 31.76 27.3953 34.064 25.9553 37.04L0.323312 24.224C4.16331 17.024 9.77931 11.36 17.1713 7.23199C24.5633 3.008 33.4913 0.895997 43.9553 0.895997C51.9233 0.895997 58.9793 2.192 65.1233 4.784C71.2673 7.37599 76.0673 11.072 79.5233 15.872C82.9793 20.672 84.7073 26.192 84.7073 32.432C84.7073 38 83.5073 43.232 81.1073 48.128C78.8033 52.928 74.2433 58.4 67.4273 64.544L53.0273 77.648H87.0113Z" fill="#CDCDCD"/>
</svg>
