<svg width="34" height="34" viewBox="0 0 34 34" fill="none" xmlns="http://www.w3.org/2000/svg">
<path d="M17.0295 12.0899L10.5254 18.5798L12.3877 20.4422L14.9979 17.818L15.6186 16.2519V30.3041H18.4404V16.2661L19.0188 17.8039L21.6712 20.4422L23.5195 18.594L17.0295 12.0899Z" fill="black"/>
<path d="M26.2 10.5944H26.0589C24.5423 6.47409 20.6301 3.72567 16.2396 3.69605C10.4192 3.65676 5.66886 8.34337 5.62964 14.1639C5.62964 14.3896 5.62964 14.6012 5.62964 14.827C2.48945 14.8581 -0.0308636 17.429 0.000285653 20.5692C0.0314349 23.7094 2.60234 26.2297 5.74253 26.1986H12.7969V23.3768H5.74247C4.16457 23.3768 2.88546 22.0977 2.88546 20.5198C2.88546 18.9419 4.16457 17.6628 5.74247 17.6628L8.56422 17.7334C8.56422 17.7334 8.43724 14.827 8.43724 14.1639C8.40623 10.5284 10.9213 7.3661 14.4706 6.57805C18.6239 5.65587 22.7383 8.27525 23.6605 12.4286L23.9709 13.7547L25.2971 13.5149C25.5944 13.4543 25.8966 13.4212 26.2 13.4161C28.9506 13.4161 31.1804 15.6459 31.1804 18.3965C31.1804 21.1471 28.9506 23.3769 26.2 23.3769H21.262V26.1987H26.2C30.5073 26.1975 33.9987 22.706 33.9999 18.3988C34.0011 14.0897 30.509 10.5956 26.2 10.5944Z" fill="black"/>
</svg>
